<svg xmlns="http://www.w3.org/2000/svg" viewBox="0 0 512 512" id="coding"><rect width="23.69" height="78.95" x="96.04" y="402.21" fill="#ff832f" rx="4.83"></rect><path fill="#ffb833" d="M91.76 131a26 26 0 016.61 4.4 27.56 27.56 0 018 13.82 20.28 20.28 0 015-12.82 20.07 20.07 0 019.81-6 19 19 0 01-9-3.81 19.47 19.47 0 01-7-12 17.32 17.32 0 01-3 9.41A17.66 17.66 0 0191.76 131zM116.23 144.9a9.08 9.08 0 012.23 1.49 9.26 9.26 0 012.7 4.65 6.67 6.67 0 015-6.34 6.42 6.42 0 01-3-1.28 6.6 6.6 0 01-2.36-4 5.78 5.78 0 01-1 3.17A5.88 5.88 0 01116.23 144.9zM90.2 119.68a5.94 5.94 0 011.52 1 6.39 6.39 0 011.85 3.19A4.55 4.55 0 0197 119.54a4.33 4.33 0 01-2.07-.88 4.49 4.49 0 01-1.62-2.77 3.94 3.94 0 01-3.09 3.79zM275.87 43.09a19 19 0 014.8 3.2 20 20 0 015.82 10 14.42 14.42 0 0110.77-13.68 13.61 13.61 0 01-6.55-2.76 14.18 14.18 0 01-5.09-8.73A12.61 12.61 0 01283.43 38 12.8 12.8 0 01275.87 43.09zM293.65 53.17a6.22 6.22 0 011.62 1.08 6.69 6.69 0 012 3.38 5 5 0 011.23-3.14 4.89 4.89 0 012.4-1.47 4.56 4.56 0 01-2.21-.93 4.76 4.76 0 01-1.71-2.94 4.26 4.26 0 01-.74 2.3A4.34 4.34 0 01293.65 53.17zM274.73 34.83a4.42 4.42 0 012.45 3.06 3.45 3.45 0 01.84-2.15 3.36 3.36 0 011.64-1 3.13 3.13 0 01-1.51-.63 3.29 3.29 0 01-1.17-2 3 3 0 01-.5 1.58A3 3 0 01274.73 34.83zM182 384.53l-55.55.42q5.05-33.26 10.1-66.49h55.55Q187.08 351.49 182 384.53z"></path><rect width="201.99" height="12.91" x="85.8" y="381.3" fill="#ff832f" rx="6.08"></rect><path fill="#ff832f" d="M301.15,344.75H70.43a11.18,11.18,0,0,1-11.13-10L44.43,190.06a11.19,11.19,0,0,1,11.13-12.34H276.13a11.19,11.19,0,0,1,11,9.28l25,144.66A11.18,11.18,0,0,1,301.15,344.75Z"></path><path fill="#fff3e3" d="M70.43,334.65a1.08,1.08,0,0,1-1.09-1L54.48,189a1,1,0,0,1,.27-.84,1,1,0,0,1,.81-.36H276.13a1.08,1.08,0,0,1,1.08.91l25,144.65a1.09,1.09,0,0,1-1.08,1.27Z"></path><rect width="352.22" height="18.27" x="32.91" y="394.2" fill="#ffb833" rx="3.57"></rect><rect width="137.84" height="63.86" x="141.49" y="77.74" fill="#ffb833" rx="30.1"></rect><path fill="#ffb833" d="M230.25,134.67a20.49,20.49,0,0,0,1.86,10.61c3.48,7.2,10.64,10.25,15.74,11.54a2.63,2.63,0,0,0,3-3.7,31,31,0,0,1-2.29-20.29Z"></path><circle cx="389.7" cy="134.68" r="71.11" fill="#ffdb99"></circle><path fill="#ffdb99" d="M421.08,195.59c1.1,13.26,4.93,31,18.27,44,6.77,6.57,11.8,7.84,16.87,11.28,23.86,16.21,19.7,61.23,19,94.69-.62,29.58,1,70.18,10.82,120.32,0,0-87,34.41-175.28,0,0,0,4.57-13.09,9-31,6-24,7.45-44.21,8.25-59.93,4-77.73-12.51-102.43,5.08-118.44,13.89-12.64,32.19-4.53,42-21,0,0,2.37-4,7.44-34.51Z"></path><path fill="#ffdb99" d="M419.39,206.66c-50.77,16.88-72.9,9.23-83.75-.51-30-26.94-17.05-108.63-17.05-108.64h0s56.89-64,112.76-20.47c3.91,3,20,15,26.41,36.27C467.09,144.42,451.85,181.73,419.39,206.66Z"></path><path fill="#383333" d="M346.88,131.57a20.09,20.09,0,0,0-11.78-2.95c-2.81.14-6.61.31-7.62,2.59a3.07,3.07,0,0,0,.3,3.09c1.44,1.67,4.62-.16,10-.59,7-.56,11.78,1.77,12.17.73C350.19,133.69,347.81,132.17,346.88,131.57Z"></path><ellipse cx="356.91" cy="161.76" fill="#ffc871" rx="4.86" ry="7.81" transform="rotate(-89.4 356.647 161.841)"></ellipse><path fill="#ffdb99" d="M383.32,137.3a13.4,13.4,0,0,1,9.22-5.34,10.28,10.28,0,0,1,6.37,1.33c6.26,4.26,6.68,20.73-2.12,26.35-4.92,3.13-10.88,1.71-12.91,1.13Q383.6,149,383.32,137.3Z"></path><path fill="#383333" d="M392.19,155.24a.34.34,0,0,1-.23-.08.37.37,0,0,1-.07-.52c1.86-2.45,2.51-4.76,1.95-6.87-1-3.67-5.33-5.57-5.37-5.59a.38.38,0,0,1-.23-.4.39.39,0,0,1,.34-.32l9.17-1a.37.37,0,0,1,.41.33.36.36,0,0,1-.33.41l-7.94.87c1.47.86,3.93,2.67,4.68,5.49.62,2.35-.08,4.88-2.08,7.52A.38.38,0,0,1,392.19,155.24Z"></path><path fill="#383333" fill-rule="evenodd" d="M337.4,153.45a5.88,5.88,0,1,1-.62-8.27A5.88,5.88,0,0,1,337.4,153.45Z"></path><path fill="#383333" d="M379.85 216.46a.5.5 0 010-1c11.28-.64 31.63-6.81 31.83-6.88a.52.52 0 01.63.34.5.5 0 01-.34.62c-.2.06-20.66 6.27-32.06 6.92zM334.12 189a10.16 10.16 0 01-1.44-.1.37.37 0 01-.32-.42.36.36 0 01.42-.32 9.49 9.49 0 008.57-3.25.38.38 0 01.53-.05.37.37 0 010 .53 10.17 10.17 0 01-7.8 3.61z"></path><path fill="#ffdb99" d="M315.92,135.86s.69,9.6-5.56,14.46-.12,15,13.32,11.53C323.68,161.85,324.37,134.86,315.92,135.86Z"></path><path fill="#383333" d="M328,374.94c-.8,15.72-2.29,35.9-8.25,59.93-4.44,17.91-9,31-9,31,88.32,34.41,175.28,0,175.28,0-9.78-50.14-11.44-90.74-10.82-120.32.7-33.46,4.86-78.48-19-94.69-3.09-2.1-6.17-3.39-9.63-5.57-29,10.27-81.87-.55-81.87-.55h0C355,249,343,247.53,333.1,256.5,315.51,272.51,332,297.21,328,374.94Z"></path><path fill="#ffb833" d="M89.64 205.34h-9a1.59 1.59 0 010-3.18h9a1.59 1.59 0 010 3.18zM98.74 203.75a1.59 1.59 0 011.59-1.59h0a1.59 1.59 0 011.59 1.59h0a1.59 1.59 0 01-1.59 1.59h0A1.59 1.59 0 0198.74 203.75z"></path><path fill="#ffb833" d="M224.35,205.34a1.59,1.59,0,1,1,1.59-1.59A1.59,1.59,0,0,1,224.35,205.34Zm-10.68,0H195.49a1.6,1.6,0,0,1-1.08-.41,1.53,1.53,0,0,1-1.06.41,1.59,1.59,0,0,1,0-3.18,1.54,1.54,0,0,1,1.06.42,1.61,1.61,0,0,1,1.08-.42h18.18a1.59,1.59,0,0,1,0,3.18Zm-31,0H164.48a1.56,1.56,0,0,1-1.07-.41,1.54,1.54,0,0,1-1.07.41,1.59,1.59,0,1,1,1.07-2.76,1.57,1.57,0,0,1,1.07-.42h18.18a1.59,1.59,0,0,1,0,3.18Zm-31,0H133.47a1.57,1.57,0,0,1-1.07-.41,1.54,1.54,0,0,1-1.07.41,1.59,1.59,0,0,1,0-3.18,1.55,1.55,0,0,1,1.07.42,1.58,1.58,0,0,1,1.07-.42h18.18a1.59,1.59,0,0,1,0,3.18Zm-31,0H102.46a1.59,1.59,0,1,1,0-3.18h18.18a1.59,1.59,0,0,1,0,3.18Z"></path><path fill="#ffb833" d="M235.51 205.34h-9a1.59 1.59 0 110-3.18h9a1.59 1.59 0 010 3.18zM93.53 222.38h-9a1.59 1.59 0 110-3.18h9a1.59 1.59 0 010 3.18zM103.43 220.79a1.6 1.6 0 011.6-1.59h0a1.59 1.59 0 011.58 1.59h0a1.59 1.59 0 01-1.58 1.59h0A1.6 1.6 0 01103.43 220.79z"></path><path fill="#ffb833" d="M171.71,222.38a1.59,1.59,0,1,1,1.59-1.59A1.59,1.59,0,0,1,171.71,222.38Zm-11.5,0H140.67a1.57,1.57,0,0,1-1.15-.5,1.59,1.59,0,1,1-1.16-2.68,1.64,1.64,0,0,1,1.16.49,1.6,1.6,0,0,1,1.15-.49h19.54a1.59,1.59,0,0,1,0,3.18Zm-33.35,0H107.32a1.59,1.59,0,1,1,0-3.18h19.54a1.59,1.59,0,1,1,0,3.18Z"></path><path fill="#ffb833" d="M183 222.38h-9a1.59 1.59 0 110-3.18h9a1.59 1.59 0 010 3.18zM93.53 238.12h-9a1.59 1.59 0 110-3.18h9a1.59 1.59 0 010 3.18zM102.28 236.52a1.59 1.59 0 011.59-1.59h0a1.59 1.59 0 011.6 1.59h0a1.6 1.6 0 01-1.6 1.6h0A1.6 1.6 0 01102.28 236.52z"></path><path fill="#ffb833" d="M223.93,238.12a1.6,1.6,0,1,1,1.59-1.6A1.6,1.6,0,0,1,223.93,238.12Zm-10.36,0H196a1.62,1.62,0,0,1-1-.39,1.53,1.53,0,0,1-1,.39,1.6,1.6,0,0,1,0-3.19,1.58,1.58,0,0,1,1,.38,1.66,1.66,0,0,1,1-.38h17.59a1.6,1.6,0,1,1,0,3.19Zm-30,0H166a1.57,1.57,0,0,1-1-.39,1.59,1.59,0,1,1-1-2.8,1.64,1.64,0,0,1,1,.38,1.62,1.62,0,0,1,1-.38h17.6a1.6,1.6,0,0,1,0,3.19Zm-30,0H136a1.53,1.53,0,0,1-1-.39,1.62,1.62,0,0,1-1,.39,1.6,1.6,0,0,1,0-3.19,1.66,1.66,0,0,1,1,.38,1.58,1.58,0,0,1,1-.38h17.6a1.6,1.6,0,0,1,0,3.19Zm-30,0h-17.6a1.6,1.6,0,0,1,0-3.19h17.6a1.6,1.6,0,0,1,0,3.19Z"></path><path fill="#ffb833" d="M235 238.12h-9a1.59 1.59 0 110-3.18h9a1.59 1.59 0 010 3.18zM96.74 254.18h-9a1.59 1.59 0 010-3.18h9a1.59 1.59 0 110 3.18zM103.91 252.6A1.59 1.59 0 01105.5 251h0a1.59 1.59 0 011.58 1.59h0a1.59 1.59 0 01-1.58 1.59h0A1.59 1.59 0 01103.91 252.6z"></path><path fill="#ffb833" d="M156.28,254.19a1.59,1.59,0,1,1,1.6-1.58A1.59,1.59,0,0,1,156.28,254.19Zm-8.76,0H132.64a1.49,1.49,0,0,1-.87-.27,1.57,1.57,0,0,1-.88.27,1.59,1.59,0,1,1,0-3.18,1.64,1.64,0,0,1,.88.26,1.56,1.56,0,0,1,.87-.26h14.88a1.59,1.59,0,1,1,0,3.17Zm-25.39,0H107.24a1.59,1.59,0,0,1,0-3.18h14.88a1.59,1.59,0,1,1,0,3.18Z"></path><path fill="#ffb833" d="M167.05 254.2h-9a1.59 1.59 0 110-3.18h9a1.6 1.6 0 010 3.19zM100 270.42H91a1.59 1.59 0 110-3.18h9a1.59 1.59 0 110 3.18zM108.49 268.83a1.59 1.59 0 011.59-1.58h0a1.59 1.59 0 011.59 1.58h0a1.59 1.59 0 01-1.59 1.59h0A1.59 1.59 0 01108.49 268.83z"></path><path fill="#ffb833" d="M198,270.45a1.59,1.59,0,0,1,0-3.18,1.55,1.55,0,0,1,1.13.47,1.52,1.52,0,0,1,.46,1.12A1.59,1.59,0,0,1,198,270.45Zm-10.1,0H170.7a1.62,1.62,0,0,1-1-.36,1.63,1.63,0,0,1-2.14-.11,1.57,1.57,0,0,1-.46-1.12,1.59,1.59,0,0,1,2.6-1.23,1.62,1.62,0,0,1,1-.36h17.18a1.57,1.57,0,0,1,1.12.47,1.54,1.54,0,0,1,.47,1.12A1.59,1.59,0,0,1,187.88,270.44Zm-29.3,0H141.41a1.65,1.65,0,0,1-1-.36,1.59,1.59,0,1,1,0-2.46,1.62,1.62,0,0,1,1-.36h17.18a1.59,1.59,0,1,1,0,3.18Zm-29.3,0H112.11a1.59,1.59,0,0,1-1.59-1.59,1.59,1.59,0,0,1,1.59-1.58h17.17a1.59,1.59,0,1,1,0,3.18Z"></path><path fill="#ffb833" d="M209 270.45h-9a1.59 1.59 0 010-3.18h9a1.59 1.59 0 010 3.18zM103.26 286.85h-9a1.59 1.59 0 110-3.18h9a1.6 1.6 0 010 3.19zM113.56 285.25a1.59 1.59 0 011.59-1.58h0a1.59 1.59 0 011.59 1.59h0a1.59 1.59 0 01-1.59 1.59h0A1.6 1.6 0 01113.56 285.25z"></path><path fill="#ffb833" d="M184.13,286.88h0a1.59,1.59,0,1,1,0-3.18,1.56,1.56,0,0,1,1.13.47,1.52,1.52,0,0,1,.45,1.11A1.59,1.59,0,0,1,184.13,286.88Zm-11.89,0-20.22,0a1.58,1.58,0,0,1-1.19-.53,1.59,1.59,0,1,1,0-2.12,1.59,1.59,0,0,1,1.19-.53h20.22a1.57,1.57,0,0,1,1.12.47,1.55,1.55,0,0,1,.46,1.12A1.59,1.59,0,0,1,172.24,286.88Zm-34.49,0H117.53a1.59,1.59,0,1,1,0-3.18h20.22a1.53,1.53,0,0,1,1.12.47,1.54,1.54,0,0,1,.47,1.12A1.59,1.59,0,0,1,137.75,286.85Z"></path><path fill="#ffb833" d="M195.53 286.89h-9a1.59 1.59 0 010-3.18h9a1.59 1.59 0 010 3.18zM106.58 303.45h-9a1.6 1.6 0 010-3.19h9a1.59 1.59 0 010 3.18zM115.6 301.87a1.59 1.59 0 011.59-1.59h0a1.59 1.59 0 011.59 1.59h0a1.59 1.59 0 01-1.59 1.59h0A1.6 1.6 0 01115.6 301.87z"></path><path fill="#ffb833" d="M240.31,303.5h0a1.59,1.59,0,1,1,1.12-2.72,1.61,1.61,0,0,1,.47,1.13A1.59,1.59,0,0,1,240.31,303.5Zm-10.62,0h-18a1.59,1.59,0,0,1-1.06-.4,1.64,1.64,0,0,1-2.19-.07,1.56,1.56,0,0,1-.46-1.12,1.59,1.59,0,0,1,2.65-1.19,1.61,1.61,0,0,1,1-.4h18.05a1.59,1.59,0,0,1,0,3.18Zm-30.78,0h-18a1.58,1.58,0,0,1-1.06-.4,1.67,1.67,0,0,1-1.07.4,1.59,1.59,0,0,1,0-3.18,1.57,1.57,0,0,1,1.08.4,1.49,1.49,0,0,1,1.06-.4h18a1.59,1.59,0,0,1,0,3.18Zm-30.78,0h-18a1.57,1.57,0,0,1-1.07-.42,1.53,1.53,0,0,1-1.05.41,1.59,1.59,0,1,1,0-3.17,1.56,1.56,0,0,1,1.07.4,1.51,1.51,0,0,1,1.06-.4h18a1.58,1.58,0,0,1,1.13.46,1.55,1.55,0,0,1,.47,1.13A1.59,1.59,0,0,1,168.13,303.47Zm-30.77,0H119.31a1.59,1.59,0,1,1,0-3.18h18a1.59,1.59,0,1,1,0,3.18Z"></path><path fill="#ffb833" d="M251.45 303.51h-9a1.59 1.59 0 010-3.18h9a1.6 1.6 0 010 3.19zM109.94 320.24h-9a1.6 1.6 0 010-3.19h9a1.59 1.59 0 110 3.18zM119.05 318.65a1.59 1.59 0 011.6-1.58h0a1.59 1.59 0 011.58 1.59h0a1.59 1.59 0 01-1.59 1.59h0A1.6 1.6 0 01119.05 318.65z"></path><path fill="#ffb833" d="M213.77,320.31a1.6,1.6,0,1,1,1.13-2.72,1.56,1.56,0,0,1,.47,1.12A1.6,1.6,0,0,1,213.77,320.31Zm-10.7,0h-18.2a1.51,1.51,0,0,1-1.07-.41,1.64,1.64,0,0,1-2.2-.05,1.6,1.6,0,0,1,1.13-2.72,1.6,1.6,0,0,1,1.07.41,1.6,1.6,0,0,1,1.07-.41h18.2a1.59,1.59,0,1,1,0,3.18Zm-31,0h0l-18.21,0a1.59,1.59,0,0,1-1.07-.41,1.62,1.62,0,0,1-2.19-.05,1.59,1.59,0,0,1,1.12-2.71,1.56,1.56,0,0,1,1.07.41,1.6,1.6,0,0,1,1.08-.41H172a1.59,1.59,0,1,1,0,3.18Zm-31,0H122.78a1.57,1.57,0,0,1-1.12-.47,1.58,1.58,0,0,1,1.12-2.71H141a1.59,1.59,0,0,1,0,3.18Z"></path><path fill="#ffb833" d="M224.94,320.31h-9a1.59,1.59,0,0,1,0-3.18h9a1.59,1.59,0,0,1,0,3.18Z"></path><path fill="#fff3e3" d="M189.57 127.67a2 2 0 01-1.36-.53l-16.88-15.65a2.05 2.05 0 01-.65-1.43 2 2 0 01.59-1.45l16.89-16.89A2 2 0 01191 94.55L175.57 110l15.36 14.23a2 2 0 01-1.36 3.47zM231 127.67a2 2 0 01-1.46-.64 2 2 0 01.11-2.83L245 110 229.59 94.55a2 2 0 112.83-2.83l16.89 16.89a2 2 0 01-.06 2.88l-16.89 15.65A2 2 0 01231 127.67zM200.54 133.79a1.93 1.93 0 01-.63-.1 2 2 0 01-1.27-2.53l14.83-44.67a2 2 0 113.79 1.26l-14.83 44.67A2 2 0 01200.54 133.79z"></path><path fill="#ffdb99" d="M209,361.37s-37,.53-44,1.94-37,15.74-34.65,20.34,6.8,3.76,12.24,1.17,16.23-2.47,25.6.13,28.41,8.95,36.48,7.54S209,361.37,209,361.37Z"></path><path fill="#383333" d="M349.93 248.64c-5.48.32-13.84 1.62-21.55 7-11.24 7.83-14 19.33-22.81 45.62-3.14 9.32-8.1 23.64-14.86 41.38l-87.52 17.5a35.8 35.8 0 00-5.84 33.42c45.19 7.2 78.42 5.91 99.2 3.71 7.7-.81 14.81-1.86 22.81-5.83 29.38-14.58 37.44-51.88 39.78-66.09C359.14 325.34 364.59 261.81 349.93 248.64zM311.14 61.89S294.59 80.58 307.9 97s39 5 59.46 6.11-11.45 42.08 16 51.74c0 0-4.06-17.6 3.52-20.88s14.24-1.85 15.88 5.26-.35 21.87-11.75 22.51 9 56.44 35 44c24.58-11.73 62-83 31.24-123.09-14.15-18.43-43.85-30.45-69.08-26.35C365.59 60 349.79 76 326.43 69.44A47.68 47.68 0 01311.14 61.89z"></path><path fill="#fff" d="M327.31 387.69a.49.49 0 01-.4-.21.51.51 0 01.11-.7c29.68-21.87 29.4-78.06 29.39-78.63a.5.5 0 01.49-.5h0a.5.5 0 01.5.49c0 .57.3 57.27-29.8 79.45A.54.54 0 01327.31 387.69zM341.36 97.7c-8.31 0-14.54-2.21-18.56-6.58-6.28-6.84-4.77-16.41-4.7-16.81a.5.5 0 011 .16c0 .1-1.49 9.5 4.47 16 4.44 4.84 11.83 6.88 21.94 6.08A.49.49 0 01346 97a.5.5 0 01-.46.54C344.11 97.64 342.71 97.7 341.36 97.7zM388.14 126.17h-.06a7.8 7.8 0 01-6.14-3.84c-4.55-7.74 1.48-24.51 3-28.54-37.77 7-46.25-7.9-46.6-8.55a.49.49 0 01.2-.67.5.5 0 01.68.2c.08.15 8.7 15.13 46.42 7.87a.51.51 0 01.56.69c-.08.2-8.26 20.28-3.43 28.5a6.71 6.71 0 005.38 3.34.5.5 0 01.44.56A.5.5 0 01388.14 126.17zM436.77 185.93a.49.49 0 01-.38-.82c24-27.82 23.59-79.25 23.58-79.77a.5.5 0 01.49-.5h0a.49.49 0 01.5.49c0 .52.42 52.32-23.83 80.43A.46.46 0 01436.77 185.93zM411.8 184.17a.5.5 0 01-.08-1c26-4.14 33.68-41.29 33.75-41.67a.49.49 0 01.59-.39.51.51 0 01.39.59c-.07.38-7.87 38.21-34.57 42.46zM409.54 160.38a.5.5 0 01-.45-.27.49.49 0 01.22-.67c9.42-4.82 13.92-14.91 15.09-17.9-4.52 1-8.2.23-11-2.2-7.63-6.71-5.55-23.88-5.46-24.61a.5.5 0 111 .13c0 .17-2.1 17.37 5.14 23.73 2.67 2.36 6.36 3 10.95 1.77a.5.5 0 01.49.14.49.49 0 01.11.49c0 .14-4.44 13.48-15.9 19.34A.44.44 0 01409.54 160.38zM383.32 68.88a.49.49 0 01-.46-.3.5.5 0 01.26-.66c.21-.09 20.82-8.66 34.69 0a.51.51 0 01.16.69.5.5 0 01-.69.15c-13.43-8.42-33.57 0-33.77 0A.43.43 0 01383.32 68.88z"></path><path fill="#383333" d="M331.33,184.48a13.71,13.71,0,0,1-3.22-.33.51.51,0,0,1-.35-.62.52.52,0,0,1,.62-.35c.09,0,9.21,2.4,16.72-6.51a.49.49,0,0,1,.7-.06.49.49,0,0,1,.06.7C340.74,183.4,334.87,184.48,331.33,184.48Z"></path></svg>