<svg xmlns="http://www.w3.org/2000/svg" enable-background="new 0 0 64 64" viewBox="0 0 64 64" id="shortlisted-employee"><path fill="#fff" d="M40.5,47.5c0,6.08,4.92,11,11,11v4h-50v-61h50v35C45.42,36.5,40.5,41.42,40.5,47.5z"></path><path fill="#efefef" d="M51.5,58.5v4h-50v-61h6.65c0.53,6.86,2.4,13.34,5.35,19.19c0.7,1.38,1.45,2.72,2.26,4.02
				c0.5,0.79,1.01,1.57,1.55,2.34c0.53,0.76,1.09,1.51,1.66,2.24c3.02,3.83,6.57,7.23,10.53,10.08c3.44,2.47,7.19,4.52,11.19,6.08
				c-0.12,0.67-0.19,1.35-0.19,2.05C40.5,53.58,45.42,58.5,51.5,58.5z"></path><path fill="#06afff" d="M29.5,31.5v10c0,4.97-4.03,9-9,9h-5c-4.97,0-9-4.03-9-9v-10c0-4.33,3.06-7.94,7.13-8.81l1.87,2.81l1-3h3l1,3
				l1.87-2.81C26.44,23.56,29.5,27.17,29.5,31.5z"></path><path fill="#fcda35" d="M24.5,13c0,0.1,0,0.19-0.01,0.29c-0.15,3.46-3,6.21-6.49,6.21s-6.34-2.75-6.49-6.21
				C11.5,13.19,11.5,13.1,11.5,13c0-3.59,2.91-6.5,6.5-6.5C21.59,6.5,24.5,9.41,24.5,13z"></path><path fill="#ff56cb" d="M24.5,13c0,0.1,0,0.19-0.01,0.29c-0.47,0.14-0.97,0.21-1.49,0.21c-1.11,0-2.14-0.33-3.01-0.9
				c-0.86-0.56-1.55-1.36-1.99-2.31c-0.87,1.9-2.78,3.21-5,3.21c-0.52,0-1.02-0.07-1.49-0.21C11.5,13.19,11.5,13.1,11.5,13
				c0-3.59,2.91-6.5,6.5-6.5C21.59,6.5,24.5,9.41,24.5,13z"></path><path fill="#fcda35" d="M62.5,47.5c0,6.08-4.92,11-11,11s-11-4.92-11-11c0-0.7,0.07-1.38,0.19-2.05c0.96-5.1,5.43-8.95,10.81-8.95
				C57.58,36.5,62.5,41.42,62.5,47.5z"></path><path fill="#faca00" d="M57.5,51c-1.87,0-3.72-0.1-5.54-0.3c-1.49-0.15-2.96-0.38-4.41-0.67c-2.41-0.46-4.75-1.1-7.03-1.89
				c0.33,5.78,5.11,10.36,10.98,10.36c4.93,0,9.1-3.23,10.5-7.7C60.52,50.93,59.02,51,57.5,51z"></path><polygon fill="#ff56cb" points="58.571 44.086 57.157 42.672 50.086 49.743 45.843 45.5 44.429 46.914 48.672 51.157 48.672 51.157 50.086 52.571 51.5 51.157 51.5 51.157"></polygon><path fill="#d949ac" d="M51.96,50.7l-0.46,0.46l-1.41,1.41l-1.42-1.41l-1.12-1.13C49,50.32,50.47,50.55,51.96,50.7z"></path><polygon fill="#fcda35" points="22.5 20.5 22.5 22.5 22.37 22.69 20.5 25.5 19.5 22.5 22.46 20.53"></polygon><polygon fill="#fcda35" points="16.5 22.5 15.5 25.5 13.63 22.69 13.5 22.5 13.5 20.5 13.54 20.53"></polygon><path fill="#0688ff" d="M29.5,39.37v2.13c0,4.97-4.03,9-9,9h-5c-4.97,0-9-4.03-9-9v-10c0-4.33,3.06-7.94,7.13-8.81l1.87,2.81
				l0.26-0.79c0.5,0.79,1.01,1.57,1.55,2.34c0.53,0.76,1.09,1.51,1.66,2.24C21.99,33.12,25.54,36.52,29.5,39.37z"></path><path fill="#faca00" d="M15.76,24.71L15.5,25.5l-1.87-2.81L13.5,22.5v-1.81C14.2,22.07,14.95,23.41,15.76,24.71z"></path><rect width="23" height="3" x="6.5" y="54.5" fill="#d949ac"></rect><path fill="#ff56cb" d="M19.88,42.43L18.5,44.5h-1l-1.38-2.07c-0.4-0.6-0.57-1.32-0.48-2.04l1.78-14.21
				c0.05-0.45,0.01-0.9-0.14-1.33L16.5,22.5h3l-0.78,2.35c-0.15,0.43-0.19,0.88-0.14,1.33l1.78,14.21
				C20.45,41.11,20.28,41.83,19.88,42.43z"></path><path fill="#d949ac" d="M19.88,42.43L18.5,44.5h-1l-1.38-2.07c-0.4-0.6-0.57-1.32-0.48-2.04l1.67-13.34
				c0.53,0.76,1.09,1.51,1.66,2.24l1.39,11.1C20.45,41.11,20.28,41.83,19.88,42.43z"></path><path fill="#2828b8" d="M18.5 45h-1c-.167 0-.323-.083-.416-.223l-1.38-2.071c-.466-.698-.666-1.542-.561-2.377l1.777-14.216c.046-.368.008-.749-.109-1.102l-.784-2.354c-.051-.152-.025-.32.068-.451C16.188 22.077 16.339 22 16.5 22h3c.161 0 .312.077.406.208.094.13.12.298.068.451l-.785 2.354c-.117.353-.155.733-.109 1.102l1.777 14.216c.104.834-.095 1.679-.561 2.377l-1.38 2.071C18.823 44.917 18.667 45 18.5 45zM17.768 44h.465l1.232-1.848c.333-.499.476-1.102.401-1.698l0 0-1.777-14.216c-.064-.515-.012-1.048.152-1.542L18.806 23h-1.612l.565 1.696c.165.494.217 1.027.153 1.542l-1.777 14.216c-.075.596.068 1.199.401 1.698L17.768 44zM18 20c-3.86 0-7-3.14-7-7s3.14-7 7-7 7 3.14 7 7S21.86 20 18 20zM18 7c-3.309 0-6 2.691-6 6s2.691 6 6 6 6-2.691 6-6S21.309 7 18 7z"></path><path fill="#2828b8" d="M20.5,51H15.5C10.261,51,6,46.739,6,41.5V31.5c0-4.464,3.166-8.373,7.526-9.294
					c0.272-0.057,0.536,0.115,0.593,0.386s-0.116,0.536-0.386,0.593C9.832,24.008,7,27.505,7,31.5V41.5c0,4.687,3.813,8.5,8.5,8.5
					H20.5c4.687,0,8.5-3.813,8.5-8.5V31.5c0-3.994-2.832-7.491-6.733-8.316c-0.27-0.057-0.443-0.322-0.386-0.593
					s0.319-0.442,0.593-0.386C26.834,23.127,30,27.036,30,31.5V41.5C30,46.739,25.739,51,20.5,51z"></path><path fill="#2828b8" d="M24.5 50c-.276 0-.5-.224-.5-.5v-19c0-.276.224-.5.5-.5s.5.224.5.5v19C25 49.776 24.776 50 24.5 50zM11.5 50c-.276 0-.5-.224-.5-.5v-5c0-.276.224-.5.5-.5s.5.224.5.5v5C12 49.776 11.776 50 11.5 50zM23 14c-3.309 0-6-2.691-6-6 0-.554.075-1.102.224-1.629.075-.265.353-.418.617-.346.266.075.42.351.346.617C18.062 7.081 18 7.538 18 8c0 2.757 2.243 5 5 5 .462 0 .919-.062 1.357-.187.268-.072.542.081.617.346.075.266-.08.542-.346.617C24.102 13.925 23.554 14 23 14z"></path><path fill="#2828b8" d="M13 14c-.554 0-1.102-.075-1.629-.224-.266-.075-.42-.351-.346-.617.076-.265.352-.418.617-.346C12.081 12.938 12.538 13 13 13c1.948 0 3.732-1.144 4.546-2.915.114-.251.411-.363.663-.245.251.115.361.412.245.663C17.478 12.627 15.337 14 13 14zM11.5 40c-.276 0-.5-.224-.5-.5v-5c0-.276.224-.5.5-.5s.5.224.5.5v5C12 39.776 11.776 40 11.5 40zM11.5 32c-.276 0-.5-.224-.5-.5v-1c0-.276.224-.5.5-.5s.5.224.5.5v1C12 31.776 11.776 32 11.5 32z"></path><path fill="#2828b8" d="M51.5,63h-50C1.224,63,1,62.776,1,62.5v-61C1,1.224,1.224,1,1.5,1h50C51.776,1,52,1.224,52,1.5v35
					c0,0.276-0.224,0.5-0.5,0.5S51,36.776,51,36.5V2H2v60h49v-3.5c0-0.276,0.224-0.5,0.5-0.5s0.5,0.224,0.5,0.5v4
					C52,62.776,51.776,63,51.5,63z"></path><path fill="#2828b8" d="M51.5,59C45.159,59,40,53.841,40,47.5S45.159,36,51.5,36S63,41.159,63,47.5S57.841,59,51.5,59z M51.5,37
					C45.71,37,41,41.71,41,47.5S45.71,58,51.5,58S62,53.29,62,47.5S57.29,37,51.5,37z"></path><path fill="#2828b8" d="M50.086 53.071c-.133 0-.26-.053-.354-.146l-5.657-5.657c-.094-.094-.146-.221-.146-.354s.053-.26.146-.354l1.415-1.414c.195-.195.512-.195.707 0l3.889 3.889 6.717-6.718c.188-.188.52-.188.707 0l1.415 1.415c.094.094.146.221.146.354s-.053.26-.146.354l-8.485 8.485C50.346 53.019 50.219 53.071 50.086 53.071zM45.136 46.914l4.95 4.95 7.778-7.778-.708-.708-6.717 6.718c-.188.188-.52.188-.707 0l-3.889-3.889L45.136 46.914zM20.5 26c-.022 0-.044-.001-.066-.004-.189-.025-.348-.156-.408-.337l-1-3c-.071-.214.009-.449.197-.574l3-2c.153-.102.351-.112.513-.025S23 20.315 23 20.5v2c0 .099-.029.195-.084.277l-2 3C20.823 25.917 20.666 26 20.5 26zM20.095 22.704l.556 1.668L22 22.349v-.915L20.095 22.704zM15.5 26c-.166 0-.323-.083-.416-.223l-2-3C13.029 22.695 13 22.599 13 22.5v-2c0-.185.102-.354.264-.441.162-.087.36-.077.513.025l3 2c.188.125.268.36.197.574l-1 3c-.06.181-.218.312-.408.337C15.544 25.999 15.522 26 15.5 26zM14 22.349l1.349 2.023.556-1.668L14 21.434V22.349zM29.5 58h-23C6.224 58 6 57.776 6 57.5v-3C6 54.224 6.224 54 6.5 54h23c.276 0 .5.224.5.5v3C30 57.776 29.776 58 29.5 58zM7 57h22v-2H7V57zM46.5 7h-12C34.224 7 34 6.776 34 6.5S34.224 6 34.5 6h12C46.776 6 47 6.224 47 6.5S46.776 7 46.5 7zM46.5 12h-12c-.276 0-.5-.224-.5-.5s.224-.5.5-.5h12c.276 0 .5.224.5.5S46.776 12 46.5 12zM46.5 17h-12c-.276 0-.5-.224-.5-.5s.224-.5.5-.5h12c.276 0 .5.224.5.5S46.776 17 46.5 17zM46.5 26h-12c-.276 0-.5-.224-.5-.5s.224-.5.5-.5h12c.276 0 .5.224.5.5S46.776 26 46.5 26zM37.5 31h-3c-.276 0-.5-.224-.5-.5s.224-.5.5-.5h3c.276 0 .5.224.5.5S37.776 31 37.5 31zM46.5 31h-3c-.276 0-.5-.224-.5-.5s.224-.5.5-.5h3c.276 0 .5.224.5.5S46.776 31 46.5 31zM22.5 31h-2c-.276 0-.5-.224-.5-.5s.224-.5.5-.5h2c.276 0 .5.224.5.5S22.776 31 22.5 31z"></path></svg>