<?xml version="1.0" standalone="no"?>
<svg xmlns:xlink="http://www.w3.org/1999/xlink" id="wave" style="transform:rotate(180deg); transition: 0.3s" viewBox="0 0 1440 160" version="1.1" xmlns="http://www.w3.org/2000/svg"><defs><linearGradient id="sw-gradient-0" x1="0" x2="0" y1="1" y2="0"><stop stop-color="rgba(51, 51, 51, 1)" offset="0%"/><stop stop-color="rgba(51, 51, 51, 1)" offset="100%"/></linearGradient></defs><path style="transform:translate(0, 0px); opacity:1" fill="url(#sw-gradient-0)" d="M0,16L80,29.3C160,43,320,69,480,72C640,75,800,53,960,58.7C1120,64,1280,96,1440,98.7C1600,101,1760,75,1920,64C2080,53,2240,59,2400,64C2560,69,2720,75,2880,66.7C3040,59,3200,37,3360,48C3520,59,3680,101,3840,122.7C4000,144,4160,144,4320,144C4480,144,4640,144,4800,120C4960,96,5120,48,5280,24C5440,0,5600,0,5760,21.3C5920,43,6080,85,6240,85.3C6400,85,6560,43,6720,45.3C6880,48,7040,96,7200,114.7C7360,133,7520,123,7680,98.7C7840,75,8000,37,8160,29.3C8320,21,8480,43,8640,42.7C8800,43,8960,21,9120,26.7C9280,32,9440,64,9600,66.7C9760,69,9920,43,10080,26.7C10240,11,10400,5,10560,24C10720,43,10880,85,11040,101.3C11200,117,11360,107,11440,101.3L11520,96L11520,160L11440,160C11360,160,11200,160,11040,160C10880,160,10720,160,10560,160C10400,160,10240,160,10080,160C9920,160,9760,160,9600,160C9440,160,9280,160,9120,160C8960,160,8800,160,8640,160C8480,160,8320,160,8160,160C8000,160,7840,160,7680,160C7520,160,7360,160,7200,160C7040,160,6880,160,6720,160C6560,160,6400,160,6240,160C6080,160,5920,160,5760,160C5600,160,5440,160,5280,160C5120,160,4960,160,4800,160C4640,160,4480,160,4320,160C4160,160,4000,160,3840,160C3680,160,3520,160,3360,160C3200,160,3040,160,2880,160C2720,160,2560,160,2400,160C2240,160,2080,160,1920,160C1760,160,1600,160,1440,160C1280,160,1120,160,960,160C800,160,640,160,480,160C320,160,160,160,80,160L0,160Z"/></svg>